<svg width="692" height="191" viewBox="0 0 692 191" fill="none" xmlns="http://www.w3.org/2000/svg">
<path d="M231.12 123.02L233.96 117.44C238.85 122.23 247.56 125.76 256.56 125.76C269.38 125.76 274.96 120.38 274.96 113.63C274.96 94.84 232.79 106.39 232.79 81.05C232.79 70.97 240.62 62.26 258.03 62.26C265.76 62.26 273.78 64.51 279.26 68.33L276.81 74.1C270.94 70.28 264.09 68.42 258.02 68.42C245.5 68.42 239.92 74 239.92 80.85C239.92 99.64 282.09 88.29 282.09 113.24C282.09 123.32 274.07 131.93 256.55 131.93C246.28 131.93 236.21 128.31 231.12 123.02Z" fill="#3A3A3A"/>
<path d="M297.85 62.85H305.09V131.34H297.85V62.85Z" fill="#3A3A3A"/>
<path d="M375.63 97.09H382.58V123.22C376.12 128.99 366.92 131.93 357.43 131.93C336.59 131.93 321.32 117.16 321.32 97.1C321.32 77.04 336.58 62.27 357.52 62.27C367.89 62.27 376.89 65.6 382.96 72.15L378.46 76.75C372.69 71.07 365.84 68.73 357.81 68.73C340.88 68.73 328.46 80.77 328.46 97.11C328.46 113.35 340.89 125.49 357.72 125.49C364.28 125.49 370.34 124.02 375.63 120.21V97.09V97.09Z" fill="#3A3A3A"/>
<path d="M474.16 62.85V131.34H467.21V76.55L440.3 122.64H436.88L409.97 76.85V131.35H403.02V62.86H409L438.75 113.64L468.2 62.86H474.16V62.85Z" fill="#3A3A3A"/>
<path d="M496.47 62.85H503.71V131.34H496.47V62.85Z" fill="#3A3A3A"/>
<path d="M583.26 62.85V131.34H577.29L533.26 75.76V131.34H526.02V62.85H531.99L576.12 118.43V62.85H583.26V62.85Z" fill="#3A3A3A"/>
<path d="M605.56 62.85H633.45C655.37 62.85 670.14 76.94 670.14 97.1C670.14 117.26 655.36 131.35 633.45 131.35H605.56V62.85V62.85ZM633.06 125.08C651.26 125.08 663 113.53 663 97.1C663 80.66 651.26 69.12 633.06 69.12H612.81V125.09H633.06V125.08Z" fill="#3A3A3A"/>
<path d="M32.16 105.37C20.97 105.37 11.86 96.26 11.86 85.07C11.86 73.88 20.97 64.77 32.16 64.77C43.35 64.77 52.46 73.88 52.46 85.07C52.46 96.26 43.35 105.37 32.16 105.37ZM32.16 71.64C24.75 71.64 18.73 77.67 18.73 85.07C18.73 92.47 24.76 98.5 32.16 98.5C39.56 98.5 45.59 92.47 45.59 85.07C45.59 77.67 39.57 71.64 32.16 71.64Z" fill="#48DA62"/>
<path d="M63.9 65.56C55.26 65.56 48.23 58.53 48.23 49.89C48.23 41.25 55.26 34.22 63.9 34.22C72.54 34.22 79.57 41.25 79.57 49.89C79.57 58.53 72.54 65.56 63.9 65.56ZM63.9 41.09C59.05 41.09 55.1 45.04 55.1 49.89C55.1 54.74 59.05 58.69 63.9 58.69C68.75 58.69 72.7 54.74 72.7 49.89C72.7 45.04 68.75 41.09 63.9 41.09Z" fill="#48DA62"/>
<path d="M70.96 138.5C62.32 138.5 55.29 131.47 55.29 122.83C55.29 114.19 62.32 107.16 70.96 107.16C79.6 107.16 86.63 114.19 86.63 122.83C86.63 131.47 79.6 138.5 70.96 138.5ZM70.96 114.03C66.11 114.03 62.16 117.98 62.16 122.83C62.16 127.68 66.11 131.63 70.96 131.63C75.81 131.63 79.76 127.68 79.76 122.83C79.76 117.98 75.82 114.03 70.96 114.03Z" fill="#48DA62"/>
<path d="M118.47 143.87C109.83 143.87 102.8 136.84 102.8 128.2C102.8 119.56 109.83 112.53 118.47 112.53C127.11 112.53 134.14 119.56 134.14 128.2C134.14 136.84 127.11 143.87 118.47 143.87ZM118.47 119.4C113.62 119.4 109.67 123.35 109.67 128.2C109.67 133.05 113.62 137 118.47 137C123.32 137 127.27 133.05 127.27 128.2C127.27 123.35 123.32 119.4 118.47 119.4Z" fill="#48DA62"/>
<path d="M153.56 169.52C144.92 169.52 137.89 162.49 137.89 153.85C137.89 145.21 144.92 138.18 153.56 138.18C162.2 138.18 169.23 145.21 169.23 153.85C169.23 162.49 162.2 169.52 153.56 169.52ZM153.56 145.05C148.71 145.05 144.76 149 144.76 153.85C144.76 158.7 148.71 162.65 153.56 162.65C158.41 162.65 162.36 158.7 162.36 153.85C162.36 149 158.41 145.05 153.56 145.05Z" fill="#48DA62"/>
<path d="M158.12 76.27C154.22 76.27 150.52 74.84 147.61 72.21C144.51 69.4 142.69 65.55 142.48 61.37C142.27 57.19 143.71 53.18 146.52 50.08C149.33 46.98 153.18 45.16 157.36 44.95C161.53 44.74 165.55 46.18 168.65 48.99C171.75 51.8 173.57 55.65 173.78 59.83C174.2 68.46 167.53 75.83 158.9 76.25C158.64 76.27 158.38 76.27 158.12 76.27ZM158.15 51.8C158 51.8 157.86 51.8 157.71 51.81C155.36 51.93 153.2 52.95 151.62 54.69C150.04 56.43 149.24 58.68 149.35 61.03C149.46 63.38 150.49 65.54 152.23 67.12C153.97 68.7 156.22 69.51 158.57 69.39C163.42 69.15 167.17 65.01 166.93 60.17C166.81 57.82 165.79 55.66 164.05 54.08C162.41 52.6 160.33 51.8 158.15 51.8Z" fill="#48DA62"/>
<path d="M107.55 105.37C96.36 105.37 87.25 96.26 87.25 85.07C87.25 73.88 96.36 64.77 107.55 64.77C118.74 64.77 127.85 73.88 127.85 85.07C127.85 96.26 118.75 105.37 107.55 105.37ZM107.55 71.64C100.14 71.64 94.12 77.67 94.12 85.07C94.12 92.47 100.15 98.5 107.55 98.5C114.95 98.5 120.98 92.47 120.98 85.07C120.98 77.67 114.96 71.64 107.55 71.64Z" fill="#48DA62"/>
<path d="M164.67 123.06C153.93 123.06 144.94 114.6 144.4 103.75C144.13 98.33 145.99 93.14 149.63 89.12C153.27 85.1 158.26 82.74 163.68 82.48C169.09 82.21 174.29 84.07 178.31 87.71C182.33 91.35 184.69 96.34 184.95 101.76C185.5 112.94 176.85 122.49 165.67 123.03C165.34 123.05 165 123.06 164.67 123.06ZM164.7 89.32C164.48 89.32 164.25 89.33 164.02 89.34C160.44 89.52 157.14 91.08 154.73 93.74C152.32 96.4 151.09 99.84 151.27 103.42C151.45 107 153.01 110.3 155.67 112.71C158.33 115.12 161.77 116.34 165.35 116.17C168.93 115.99 172.23 114.43 174.64 111.77C177.05 109.11 178.28 105.67 178.1 102.09C177.92 98.51 176.36 95.21 173.7 92.8C171.21 90.55 168.03 89.32 164.7 89.32Z" fill="#48DA62"/>
<path d="M120.54 56C115.49 56 110.7 54.15 106.93 50.74C102.91 47.1 100.55 42.11 100.29 36.69C100.02 31.27 101.88 26.08 105.52 22.06C109.16 18.04 114.15 15.68 119.57 15.42C124.99 15.15 130.18 17.01 134.2 20.65C138.22 24.29 140.58 29.28 140.84 34.7C141.11 40.12 139.25 45.31 135.61 49.33C131.97 53.35 126.98 55.71 121.56 55.97C121.22 55.99 120.88 56 120.54 56ZM120.58 22.26C120.36 22.26 120.13 22.27 119.9 22.28C116.32 22.46 113.02 24.02 110.61 26.68C108.2 29.34 106.97 32.78 107.15 36.36C107.33 39.94 108.89 43.24 111.55 45.65C114.21 48.06 117.64 49.29 121.23 49.11C124.81 48.93 128.11 47.37 130.52 44.71C132.93 42.05 134.16 38.61 133.98 35.03C133.8 31.45 132.24 28.15 129.58 25.74C127.09 23.49 123.92 22.26 120.58 22.26Z" fill="#48DA62"/>
<path d="M82.3495 122.191L81.8941 127.672L107.327 129.785L107.783 124.304L82.3495 122.191Z" fill="#48DA62"/>
<path d="M87.69 82.32H49.03V87.82H87.69V82.32Z" fill="#48DA62"/>
<path d="M137.599 42.7009L134.615 47.3214L146.847 55.2188L149.83 50.5982L137.599 42.7009Z" fill="#48DA62"/>
<path d="M73.6521 54.6826L70.6689 59.3031L94.7798 74.87L97.763 70.2495L73.6521 54.6826Z" fill="#48DA62"/>
<path d="M130.466 133.425L127.482 138.046L143.505 148.389L146.488 143.768L130.466 133.425Z" fill="#48DA62"/>
<path d="M163.307 73.2191L157.866 74.0221L159.698 86.4378L165.139 85.6348L163.307 73.2191Z" fill="#48DA62"/>
</svg>
